<svg height="512" viewBox="0 0 57 58" width="512" xmlns="http://www.w3.org/2000/svg"><g id="047---Fishing"><path id="Shape" d="m0 1v46.5c.00316133 2.959854 1.25412127 5.7811974 3.44551143 7.7708091s5.12008574 2.9630702 8.06648857 2.6811909c5.4543508-.6214254 9.553556-5.2697546 9.488-10.759v-16.753c.0003337-.4284439-.2723042-.809496-.6779171-.9474903-.4056129-.1379944-.8540657-.0022659-1.1150829.3374903l-6.969 9.06c-.2324974.3020184-.2730951.7099385-.1046845 1.0518567.1684107.3419181.5165413.5583715.8976845.5581433h2.969v7c-.0028153 1.5544244-.6620704 3.0353462-1.8152388 4.0776733s-2.692957 1.5490793-4.2397612 1.3953267c-2.86530783-.3698753-4.99475179-2.8343461-4.945-5.723v-46.25c0-.55228475-.44771525-1-1-1h-3c-.55228475 0-1 .44771525-1 1z"/><path id="Shape" d="m44.931 1.045v.009l-1.195 2.091c-.356217.6226715-1.0186365 1.00687161-1.736 1.00687161s-1.379783-.38420011-1.736-1.00687161l-1.18-2.065c-2.276 1.4-4.425 6.005-5.74 11.546 5.6103666 2.0455299 11.7626334 2.0455299 17.373 0-1.323-5.569-3.49-10.191-5.786-11.581zm-5.896 7.955c-.5522847 0-1-.44771525-1-1s.4477153-1 1-1 1 .44771525 1 1-.4477153 1-1 1z"/><path id="Shape" d="m42.03 16.167c-3.1047951-.0027058-6.1865927-.5325694-9.114-1.567-.5741718 2.93226-.8708158 5.9120924-.886 8.9 0 11.176 4.832 21.742 9.957 21.8h.043.044c5.124-.06 9.956-10.626 9.956-21.8-.0144888-2.9879438-.3111393-5.9678415-.886-8.9-2.9274073 1.0344306-6.0092049 1.5642942-9.114 1.567zm-1.449 24.646c-.4491065.3204498-1.0728904.216635-1.394-.232-5.151-7.21-4.226-21.066-4.187-21.652.0138698-.2670979.1358671-.5170427.3379073-.6922952.2020403-.1752524.4667145-.2607119.7330927-.2367048.2654685.0181759.5127462.1414046.6871024.3424116s.2614115.4632149.2418976.7285884c-.01.136-.913 13.726 3.816 20.348.319825.4498874.2146411 1.073829-.235 1.394z"/><path id="Shape" d="m53.85 19.586c.115 1.333.18 2.648.18 3.914-.0071417 2.7504274-.2837971 5.493536-.826 8.19 1.136501.4422029 2.397499.4422029 3.534 0 .1802255-.1179178.2809214-.3254591.262-.54 0-3.616-1.666-8.45-3.15-11.564z"/><path id="Shape" d="m42.078 47.3h-.048-.048c-5.4566561.0453313-10.0627097 4.0680873-10.842 9.469 1.0522687-.4037943 2.1266739-.7473502 3.218-1.029.4423293-1.622651 1.2326306-3.1295467 2.316-4.416.3782-.3827793.991491-.3976499 1.3877983-.0336502.3963073.3639996.4335174.9763414.0842017 1.3856502-.633689.7679198-1.1456591 1.6286231-1.518 2.552 1.4431682-.2700201 2.9046465-.4308094 4.372-.481v-2.747c0-.5522847.4477153-1 1-1s1 .4477153 1 1v2.746c1.4664336.0482583 2.9273528.2040094 4.371.466-.3724891-.9184096-.8845183-1.7738155-1.518-2.536-.3738968-.4064816-.3474816-1.0391032.059-1.413s1.0391032-.3474816 1.413.059c1.0826916 1.2808573 1.8730517 2.7824051 2.316 4.4 1.1163672.2853766 2.2149396.6363188 3.29 1.051-.7821102-5.4044291-5.3924529-9.4285493-10.853-9.473z"/><path id="Shape" d="m27 31.15c-.0192358.2145669.0820369.4221183.263.539.548.382 1.907.463 3.59-.016-.5402373-2.690971-.8158838-5.4283451-.823-8.173 0-1.3.069-2.646.191-4.013-1.521 3.139-3.221 8.02-3.221 11.663z"/><circle id="Oval" cx="19" cy="18" r="2"/><circle id="Oval" cx="13.5" cy="11.5" r="2.5"/><circle id="Oval" cx="20.5" cy="4.5" r="3.5"/></g></svg>