<svg height="512pt" viewBox="0 -7 512 512" width="512pt" xmlns="http://www.w3.org/2000/svg"><path d="m452 417h-151.859375c3.765625 9.269531 5.859375 19.394531 5.859375 30s-2.09375 20.730469-5.859375 30h181.859375c16.566406 0 30-13.433594 30-30v-357h-60zm0 0"/><path d="m452 0h60v60h-60zm0 0"/><path d="m210 247.5c8.285156 0 15 6.714844 15 15 0 49.902344 43.738281 90.5 97.5 90.5s97.5-40.597656 97.5-90.5v-45c0-49.902344-43.738281-90.5-97.5-90.5h-225c-53.761719 0-97.5 40.597656-97.5 90.5v45c0 49.902344 43.738281 90.5 97.5 90.5s97.5-40.597656 97.5-90.5c0-8.285156 6.714844-15 15-15zm0 0"/><path d="m276 447c0 27.613281-22.386719 50-50 50s-50-22.386719-50-50 22.386719-50 50-50 50 22.386719 50 50zm0 0"/></svg>